# xmcd
#
# Track frame offsets:
# 150
# 20880
# 39277
# 60415
# 80041
# 100141
# 123709
# 141822
# 163620
# 185138
#
# Disc length: 2757 seconds
#
#
# Revision: 1
# Processed by: cddbd v1.5.2PL0 Copyright (c) Steve Scherf et al.
# Submitted via: FreeRIP 2.96 
#
DISCID=8a0ac30a
DTITLE=John Waller - The Blessing
DYEAR=2007
DGENRE=Contemporary Christian
TTITLE0=Calling For A Flood
TTITLE1=Identity
TTITLE2=The Blessing
TTITLE3=Still Calls Me Son
TTITLE4=Ancient Words
TTITLE5=Breathe On Me
TTITLE6=Love To Say Your Name
TTITLE7=While I'm Waiting
TTITLE8=Something Big
TTITLE9=Sacred Pages
EXTD=
EXTT0=
EXTT1=
EXTT2=
EXTT3=
EXTT4=
EXTT5=
EXTT6=
EXTT7=
EXTT8=
EXTT9=
PLAYORDER=
